<svg xmlns="http://www.w3.org/2000/svg" version="1.0" viewBox="0 0 370 359"><path d="M209 97.4c0 .2 3.7 6.2 8.2 13.3 4.5 7 13.5 21.3 20.1 31.8 18 28.7 19.2 30.5 19.8 30.5.3 0 5.4-7.5 11.1-16.8 5.8-9.2 16.4-26.1 23.7-37.5 7.2-11.5 13.1-21 13.1-21.3 0-.2-21.6-.4-48-.4s-48 .2-48 .4m-35.5 5.5c-1.6 2.7-9.3 14.8-17 27-7.7 12.1-15.1 23.9-16.5 26.1-1.4 2.3-11.2 17.9-21.9 34.8S92.8 230.7 85.6 242c-7.1 11.3-19.1 30.3-26.7 42.2-7.6 12-14.3 22.7-14.9 23.8-1.1 2-.8 2 62.9 2h64l12.4-19.8c6.9-10.8 14.5-22.9 17-26.7 2.4-3.9 9.9-15.8 16.7-26.5 6.7-10.7 14.9-23.6 18.1-28.7 3.3-5 5.9-9.7 5.9-10.4s-3.8-7.1-8.4-14.3c-7.7-12-44.2-69.7-51.1-80.8-1.7-2.7-3.4-4.8-4-4.8-.5 0-2.3 2.2-4 4.9m56.3 162.5c-14.7 23.3-27 43.1-27.4 44-.6 1.5 3.8 1.6 54.5 1.6 30.3 0 55.1-.3 55.1-.8 0-1.2.3-.6-38.3-61.7-8.7-13.8-16.1-25.1-16.5-25.2-.4-.2-12.7 18.8-27.4 42.1"/></svg>